<svg width="344" height="499" viewBox="0 0 344 499" fill="none" xmlns="http://www.w3.org/2000/svg">
<mask id="path-1-inside-1_14_25" fill="white">
<path fill-rule="evenodd" clip-rule="evenodd" d="M271.778 388.312L67.2645 449.659C97.8713 393.578 110.523 325.967 98.7148 256.556C88.1035 194.182 59.332 139.712 19.1903 98.2471C140.477 110.573 244.889 207.383 267.421 339.827C270.194 356.13 271.619 372.334 271.778 388.312Z"/>
</mask>
<path fill-rule="evenodd" clip-rule="evenodd" d="M271.778 388.312L67.2645 449.659C97.8713 393.578 110.523 325.967 98.7148 256.556C88.1035 194.182 59.332 139.712 19.1903 98.2471C140.477 110.573 244.889 207.383 267.421 339.827C270.194 356.13 271.619 372.334 271.778 388.312Z" fill="black"/>
<path d="M67.2645 449.659L65.5089 448.701L63.1773 452.973L67.8391 451.575L67.2645 449.659ZM271.778 388.312L272.352 390.228L273.792 389.796L273.777 388.292L271.778 388.312ZM19.1903 98.2471L19.3925 96.2573L13.9443 95.7036L17.7533 99.6382L19.1903 98.2471ZM67.8391 451.575L272.352 390.228L271.203 386.396L66.6898 447.744L67.8391 451.575ZM96.7431 256.892C108.475 325.854 95.9031 393.01 65.5089 448.701L69.02 450.617C99.8395 394.147 112.571 326.081 100.686 256.221L96.7431 256.892ZM17.7533 99.6382C57.6181 140.817 86.2004 194.921 96.7431 256.892L100.686 256.221C90.0066 193.444 61.0458 138.607 20.6272 96.856L17.7533 99.6382ZM269.393 339.491C246.717 206.204 141.616 108.679 19.3925 96.2573L18.988 100.237C139.337 112.468 243.061 208.562 265.449 340.162L269.393 339.491ZM273.777 388.292C273.617 372.208 272.184 355.899 269.393 339.491L265.449 340.162C268.205 356.361 269.62 372.459 269.778 388.332L273.777 388.292Z" fill="#0019FF" mask="url(#path-1-inside-1_14_25)"/>
<mask id="path-3-inside-2_14_25" fill="white">
<path fill-rule="evenodd" clip-rule="evenodd" d="M326.969 334.086L125.066 404.409C150.426 347.967 158.622 281.862 144.333 214.972C130.532 150.363 97.8843 94.9944 54.0356 54.2075C178.912 58.3569 291.632 153.459 320.707 289.57C323.892 304.481 325.96 319.352 326.969 334.086Z"/>
</mask>
<path fill-rule="evenodd" clip-rule="evenodd" d="M326.969 334.086L125.066 404.409C150.426 347.967 158.622 281.862 144.333 214.972C130.532 150.363 97.8843 94.9944 54.0356 54.2075C178.912 58.3569 291.632 153.459 320.707 289.57C323.892 304.481 325.96 319.352 326.969 334.086Z" fill="#0019FF"/>
<path d="M125.066 404.409L123.242 403.589L121.339 407.825L125.724 406.298L125.066 404.409ZM326.969 334.086L327.627 335.975L329.069 335.473L328.964 333.95L326.969 334.086ZM54.0356 54.2075L54.1021 52.2086L48.7593 52.031L52.6735 55.6719L54.0356 54.2075ZM125.724 406.298L327.627 335.975L326.311 332.198L124.409 402.52L125.724 406.298ZM142.377 215.389C156.577 281.861 148.428 347.533 123.242 403.589L126.891 405.229C152.423 348.402 160.667 281.864 146.289 214.554L142.377 215.389ZM52.6735 55.6719C96.2239 96.1814 128.663 151.186 142.377 215.389L146.289 214.554C132.402 149.54 99.5446 93.8074 55.3978 52.7431L52.6735 55.6719ZM322.663 289.152C293.41 152.209 179.962 56.3907 54.1021 52.2086L53.9692 56.2064C177.861 60.3231 289.854 154.709 318.751 289.988L322.663 289.152ZM328.964 333.95C327.948 319.121 325.868 304.156 322.663 289.152L318.751 289.988C321.916 304.805 323.971 319.583 324.974 334.223L328.964 333.95Z" fill="#0019FF" mask="url(#path-3-inside-2_14_25)"/>
<mask id="path-5-inside-3_14_25" fill="white">
<path fill-rule="evenodd" clip-rule="evenodd" d="M327.47 339.811L124.344 405.606C153.719 348.87 164.893 280.999 151.573 211.862C139.604 149.735 109.65 95.9053 68.6137 55.3261C190.14 65.003 296.64 159.512 322.056 291.432C325.185 307.671 326.962 323.84 327.47 339.811Z"/>
</mask>
<path fill-rule="evenodd" clip-rule="evenodd" d="M327.47 339.811L124.344 405.606C153.719 348.87 164.893 280.999 151.573 211.862C139.604 149.735 109.65 95.9053 68.6137 55.3261C190.14 65.003 296.64 159.512 322.056 291.432C325.185 307.671 326.962 323.84 327.47 339.811Z" fill="#000E8F"/>
<path d="M124.344 405.606L122.567 404.686L120.33 409.008L124.96 407.508L124.344 405.606ZM327.47 339.811L328.086 341.714L329.516 341.25L329.469 339.747L327.47 339.811ZM68.6137 55.3261L68.7724 53.3324L63.3135 52.8977L67.2074 56.7482L68.6137 55.3261ZM124.96 407.508L328.086 341.714L326.853 337.908L123.727 403.703L124.96 407.508ZM149.609 212.241C162.843 280.93 151.739 348.345 122.567 404.686L126.12 406.525C155.7 349.396 166.943 281.068 153.537 211.484L149.609 212.241ZM67.2074 56.7482C107.961 97.0475 137.717 150.515 149.609 212.241L153.537 211.484C141.49 148.955 111.34 94.763 70.0199 53.904L67.2074 56.7482ZM324.02 291.054C298.442 158.293 191.238 63.0841 68.7724 53.3324L68.4549 57.3198C189.042 66.9219 294.838 160.73 320.092 291.811L324.02 291.054ZM329.469 339.747C328.958 323.671 327.169 307.397 324.02 291.054L320.092 291.811C323.201 307.945 324.966 324.009 325.471 339.874L329.469 339.747Z" fill="#0019FF" mask="url(#path-5-inside-3_14_25)"/>
<path d="M278.821 423.82L79.4996 471.379L275.095 411.624L278.821 423.82Z" fill="#0019FF" stroke="#0019FF"/>
</svg>
