<svg width="434" height="486" viewBox="0 0 434 486" fill="none" xmlns="http://www.w3.org/2000/svg">
<mask id="path-1-inside-1_14_26" fill="white">
<path fill-rule="evenodd" clip-rule="evenodd" d="M329.967 367.633L125.454 428.98C156.061 372.899 168.713 305.288 156.905 235.877C146.293 173.503 117.522 119.033 77.3802 77.5681C198.666 89.8943 303.079 186.704 325.611 319.148C328.384 335.451 329.808 351.655 329.967 367.633Z"/>
</mask>
<path fill-rule="evenodd" clip-rule="evenodd" d="M329.967 367.633L125.454 428.98C156.061 372.899 168.713 305.288 156.905 235.877C146.293 173.503 117.522 119.033 77.3802 77.5681C198.666 89.8943 303.079 186.704 325.611 319.148C328.384 335.451 329.808 351.655 329.967 367.633Z" fill="white"/>
<path d="M125.454 428.98L123.699 428.022L121.367 432.294L126.029 430.896L125.454 428.98ZM329.967 367.633L330.542 369.549L331.982 369.117L331.967 367.613L329.967 367.633ZM77.3802 77.5681L77.5824 75.5784L72.1342 75.0247L75.9432 78.9592L77.3802 77.5681ZM126.029 430.896L330.542 369.549L329.393 365.718L124.88 427.065L126.029 430.896ZM154.933 236.213C166.665 305.175 154.093 372.331 123.699 428.022L127.21 429.938C158.029 373.468 170.761 305.402 158.876 235.542L154.933 236.213ZM75.9432 78.9592C115.808 120.138 144.39 174.242 154.933 236.213L158.876 235.542C148.197 172.765 119.236 117.928 78.8171 76.177L75.9432 78.9592ZM327.582 318.812C304.907 185.525 199.806 87.9998 77.5824 75.5784L77.178 79.5579C197.527 91.7887 301.251 187.883 323.639 319.483L327.582 318.812ZM331.967 367.613C331.807 351.529 330.374 335.22 327.582 318.812L323.639 319.483C326.395 335.682 327.81 351.78 327.968 367.653L331.967 367.613Z" fill="#0019FF" mask="url(#path-1-inside-1_14_26)"/>
<mask id="path-3-inside-2_14_26" fill="white">
<path fill-rule="evenodd" clip-rule="evenodd" d="M358.298 324.086L156.396 394.409C181.755 337.967 189.951 271.862 175.662 204.972C161.861 140.363 129.213 84.9944 85.3647 44.2075C210.241 48.3569 322.961 143.459 352.036 279.57C355.221 294.481 357.289 309.352 358.298 324.086Z"/>
</mask>
<path fill-rule="evenodd" clip-rule="evenodd" d="M358.298 324.086L156.396 394.409C181.755 337.967 189.951 271.862 175.662 204.972C161.861 140.363 129.213 84.9944 85.3647 44.2075C210.241 48.3569 322.961 143.459 352.036 279.57C355.221 294.481 357.289 309.352 358.298 324.086Z" fill="#0019FF" fill-opacity="0.59"/>
<path d="M156.396 394.409L154.571 393.589L152.668 397.825L157.053 396.298L156.396 394.409ZM358.298 324.086L358.956 325.975L360.398 325.473L360.294 323.95L358.298 324.086ZM85.3647 44.2075L85.4312 42.2086L80.0884 42.031L84.0026 45.6719L85.3647 44.2075ZM157.053 396.298L358.956 325.975L357.64 322.198L155.738 392.52L157.053 396.298ZM173.707 205.389C187.906 271.861 179.757 337.533 154.571 393.589L158.22 395.229C183.752 338.402 191.997 271.864 177.618 204.554L173.707 205.389ZM84.0026 45.6719C127.553 86.1814 159.992 141.186 173.707 205.389L177.618 204.554C163.731 139.54 130.874 83.8074 86.7269 42.7431L84.0026 45.6719ZM353.992 279.152C324.739 142.209 211.291 46.3907 85.4312 42.2086L85.2983 46.2064C209.19 50.3231 321.183 144.709 350.08 279.988L353.992 279.152ZM360.294 323.95C359.278 309.121 357.197 294.156 353.992 279.152L350.08 279.988C353.245 294.805 355.3 309.583 356.303 324.223L360.294 323.95Z" fill="#0019FF" mask="url(#path-3-inside-2_14_26)"/>
<mask id="path-5-inside-3_14_26" fill="white">
<path fill-rule="evenodd" clip-rule="evenodd" d="M358.799 329.811L155.673 395.606C185.049 338.87 196.222 270.999 182.902 201.862C170.933 139.735 140.98 85.9053 99.9428 45.3261C221.469 55.003 327.969 149.512 353.385 281.432C356.514 297.671 358.291 313.84 358.799 329.811Z"/>
</mask>
<path fill-rule="evenodd" clip-rule="evenodd" d="M358.799 329.811L155.673 395.606C185.049 338.87 196.222 270.999 182.902 201.862C170.933 139.735 140.98 85.9053 99.9428 45.3261C221.469 55.003 327.969 149.512 353.385 281.432C356.514 297.671 358.291 313.84 358.799 329.811Z" fill="white"/>
<path d="M155.673 395.606L153.897 394.686L151.659 399.008L156.289 397.508L155.673 395.606ZM358.799 329.811L359.415 331.714L360.846 331.25L360.798 329.747L358.799 329.811ZM99.9428 45.3261L100.102 43.3324L94.6426 42.8977L98.5365 46.7482L99.9428 45.3261ZM156.289 397.508L359.415 331.714L358.183 327.908L155.056 393.703L156.289 397.508ZM180.938 202.241C194.172 270.93 183.068 338.345 153.897 394.686L157.449 396.525C187.029 339.396 198.272 271.068 184.866 201.484L180.938 202.241ZM98.5365 46.7482C139.29 87.0475 169.046 140.515 180.938 202.241L184.866 201.484C172.819 138.955 142.669 84.763 101.349 43.904L98.5365 46.7482ZM355.349 281.054C329.771 148.293 222.567 53.0841 100.102 43.3324L99.784 47.3198C220.371 56.9219 326.167 150.73 351.421 281.811L355.349 281.054ZM360.798 329.747C360.287 313.671 358.498 297.397 355.349 281.054L351.421 281.811C354.53 297.945 356.296 314.009 356.8 329.874L360.798 329.747Z" fill="#0019FF" mask="url(#path-5-inside-3_14_26)"/>
<path d="M337.532 394.046L138.211 441.605L333.807 381.851L337.532 394.046Z" fill="#0019FF" stroke="#0019FF"/>
</svg>
